<svg xmlns="http://www.w3.org/2000/svg" viewBox="0 0 110 150"><path d="M89.1 31.2c-.2-16.6-16.2-27.7-33-27.7S23.8 14.6 23.5 31.2H3.4v118.1h105.8V31.2H89.1z"/><path d="M86.5 28.5C86.3 12 70.3.8 53.5.8S21.1 12 20.9 28.5H.8v118.1h105.8V28.5H86.5z" fill="#fff"/><path d="M82.1 32.4C81.9 17.1 69.4 4.5 53.9 4.5S25.9 17 25.7 32.4H5v110h97.5v-110H82.1zM53.8 14.3c10.2 0 18.4 8.1 18.5 18.2H35.2c.2-10.1 8.5-18.2 18.6-18.2z" fill="#fcc31e"/><path d="M17 113.7c.5.3.9.8 1.1 1.3v-1.7h2.8v9.2c0 .9-.2 1.6-.5 2.3-.3.7-.8 1.2-1.5 1.6s-1.5.6-2.5.6c-1.4 0-2.5-.3-3.3-1s-1.3-1.5-1.5-2.7h2.8c.1.4.3.7.6.9.3.2.7.3 1.2.3.6 0 1.1-.2 1.4-.5s.5-.9.5-1.6v-1.6c-.2.6-.6 1-1.1 1.3s-1.1.5-1.8.5c-.8 0-1.4-.2-2-.6s-1.1-.9-1.4-1.6c-.3-.7-.5-1.6-.5-2.5 0-1 .2-1.8.5-2.5s.8-1.3 1.4-1.6c.6-.4 1.3-.6 2-.6s1.3.1 1.8.5zm-2.4 2.6c-.4.4-.6.9-.6 1.6s.2 1.3.6 1.6c.4.4.9.6 1.5.6s1.1-.2 1.5-.6.6-1 .6-1.6c0-.7-.2-1.2-.6-1.6-.4-.4-.9-.6-1.5-.6s-1.1.2-1.5.6zM29.5 113.8c.7.4 1.3.9 1.7 1.6s.6 1.6.6 2.5c0 1-.2 1.8-.6 2.5-.4.7-1 1.3-1.7 1.6-.7.4-1.5.6-2.4.6s-1.7-.2-2.5-.6c-.7-.4-1.3-.9-1.7-1.6s-.6-1.6-.6-2.5c0-1 .2-1.8.6-2.5.4-.7 1-1.3 1.7-1.6.7-.4 1.5-.6 2.5-.6.8 0 1.7.2 2.4.6zm-3.8 2.4c-.4.4-.6 1-.6 1.7s.2 1.3.6 1.7.8.6 1.4.6c.5 0 1-.2 1.4-.6s.5-.9.5-1.7c0-.7-.2-1.3-.5-1.7-.4-.4-.8-.6-1.4-.6s-1.1.2-1.4.6zM39.8 113.8c.7.4 1.3.9 1.7 1.6s.6 1.6.6 2.5c0 1-.2 1.8-.6 2.5s-1 1.3-1.7 1.6c-.7.4-1.5.6-2.4.6s-1.7-.2-2.5-.6c-.7-.4-1.3-.9-1.7-1.6s-.6-1.6-.6-2.5c0-1 .2-1.8.6-2.5.4-.7 1-1.3 1.7-1.6.7-.4 1.5-.6 2.5-.6.9 0 1.7.2 2.4.6zm-3.8 2.4c-.4.4-.6 1-.6 1.7s.2 1.3.6 1.7c.4.4.8.6 1.4.6.5 0 1-.2 1.4-.6s.5-.9.5-1.7c0-.7-.2-1.3-.5-1.7-.4-.4-.8-.6-1.4-.6-.5 0-1 .2-1.4.6zM48.8 113.7c.5.3.9.8 1.1 1.3v-4.7h2.8v12.2h-2.8v-1.7c-.2.6-.6 1-1.1 1.3s-1.1.5-1.8.5c-.8 0-1.4-.2-2-.6s-1.1-.9-1.4-1.6-.5-1.6-.5-2.5c0-1 .2-1.8.5-2.5s.8-1.3 1.4-1.6c.6-.4 1.3-.6 2-.6s1.3.1 1.8.5zm-2.4 2.6c-.4.4-.6.9-.6 1.6s.2 1.3.6 1.6c.4.4.9.6 1.5.6s1.1-.2 1.5-.6.6-1 .6-1.6c0-.7-.2-1.2-.6-1.6s-.9-.6-1.5-.6-1.1.2-1.5.6zM56.6 113.3l2.2 5.6 2.1-5.6H64l-5.7 13.6h-3.1l2.2-4.7-3.9-8.9h3.1zM72.6 113.8c.6.4 1.1.9 1.4 1.6s.5 1.5.5 2.5-.2 1.8-.5 2.5-.8 1.3-1.4 1.6c-.6.4-1.3.6-2 .6s-1.3-.2-1.8-.5-.9-.8-1.1-1.3v1.7h-2.8v-12.2h2.8v4.7c.2-.5.6-1 1.1-1.3s1.1-.5 1.8-.5 1.4.2 2 .6zm-4.4 2.5c-.4.4-.6.9-.6 1.6s.2 1.2.6 1.6.9.6 1.5.6 1.1-.2 1.5-.6.6-.9.6-1.6-.2-1.3-.6-1.6-.9-.6-1.5-.6c-.7 0-1.2.2-1.5.6zM81.1 113.7c.5.3.9.8 1.1 1.3v-1.7H85v9.2h-2.8v-1.7c-.2.6-.6 1-1.1 1.3s-1.1.5-1.8.5c-.8 0-1.4-.2-2-.6s-1.1-.9-1.4-1.6-.5-1.6-.5-2.5c0-1 .2-1.8.5-2.5s.8-1.3 1.4-1.6c.6-.4 1.3-.6 2-.6s1.3.1 1.8.5zm-2.4 2.6c-.4.4-.6.9-.6 1.6s.2 1.3.6 1.6.9.6 1.5.6 1.1-.2 1.5-.6.6-1 .6-1.6c0-.7-.2-1.2-.6-1.6s-.9-.6-1.5-.6-1.1.2-1.5.6zM92.1 113.7c.5.3.9.8 1.1 1.3v-1.7H96v9.2c0 .9-.2 1.6-.5 2.3s-.8 1.2-1.5 1.6-1.5.6-2.5.6c-1.4 0-2.5-.3-3.3-1s-1.3-1.5-1.5-2.7h2.8c.1.4.3.7.6.9.3.2.7.3 1.2.3.6 0 1.1-.2 1.4-.5.4-.3.5-.9.5-1.6v-1.6c-.2.6-.6 1-1.1 1.3s-1.1.5-1.8.5c-.8 0-1.4-.2-2-.6s-1.1-.9-1.4-1.6-.5-1.6-.5-2.5c0-1 .2-1.8.5-2.5s.8-1.3 1.4-1.6c.6-.4 1.3-.6 2-.6s1.3.1 1.8.5zm-2.3 2.6c-.4.4-.6.9-.6 1.6s.2 1.3.6 1.6c.4.4.9.6 1.5.6s1.1-.2 1.5-.6.6-1 .6-1.6c0-.7-.2-1.2-.6-1.6s-.9-.6-1.5-.6c-.7 0-1.2.2-1.5.6z"/><g><path d="M29.5 83.9c-.6 1.4-1.5 2.7-2.7 3.7h17.5v6.8H18.4l-1.1-4.2c1.7-1.4 2.9-2.9 3.7-4.5s1.2-3.5 1.2-5.8v-.3h-5.8v-5.8h4.2c-.8-2.7-1.2-5-1.2-7.1 0-2.2.5-4.1 1.5-5.7 1-1.6 2.4-2.9 4.3-3.8 1.8-.9 3.9-1.3 6.3-1.3 3.8 0 6.9 1.1 9 3.2s3.4 4.9 3.7 8.3h-8c-.1-1.3-.6-2.4-1.3-3.2-.8-.8-1.8-1.2-3.1-1.2s-2.3.4-3 1.2c-.7.8-1.1 2-1.1 3.5 0 .8.1 1.6.3 2.4s.6 2 1.1 3.7H38v5.8h-7.6v.3c0 1.3-.3 2.6-.9 4zM45.5 66.5v-8.1H60v35.8h-9.1V66.5h-5.4zM89.2 65.2H73.1v7.2c.7-.8 1.7-1.4 3-1.9s2.6-.7 4.1-.7c2.4 0 4.4.5 6 1.6s2.8 2.5 3.6 4.3c.8 1.8 1.2 3.8 1.2 5.9 0 3.9-1.1 7-3.3 9.3-2.2 2.3-5.3 3.4-9.3 3.4-2.7 0-5-.5-7-1.4-2-1-3.5-2.3-4.6-4s-1.7-3.7-1.7-6h8.4c.2 1.1.6 2.1 1.4 2.8.8.7 1.8 1.1 3.1 1.1 1.5 0 2.7-.5 3.4-1.5.8-1 1.1-2.3 1.1-3.9s-.4-2.7-1.2-3.6c-.8-.8-1.9-1.3-3.4-1.3-1.1 0-2 .2-2.8.7-.7.5-1.2 1.1-1.5 1.9h-8.4V57.6h23.9v7.6h.1z"/></g></svg>