<svg xmlns="http://www.w3.org/2000/svg" fill="#fff" background="#000" viewBox="0 0 24 24"><rect width="100%" height="100%" fill="#000"/><path d="M20.7 17.6c0-.8.1-1.7.1-2.5-.1-1.5-.4-2.9-1-4.2-1-1.9-2.5-2.9-4.4-3.4 0-.2.1-.3.1-.5 0-.3 0-.8-.1-1.1.3-.3.6-.5.9-.8.4-.3.4-.7.8-1.1.2-.2.2-.5.1-.7-.2-.5-.6-.8-1.1-1.1-.4-.1-.7.1-1 .3-.5-.5-1.1-.9-1.6-1-.6 0-1.2.4-1.6 1-.1-.1-.2-.2-.3-.2-.2-.1-.5-.1-.8 0-.6.2-1.1.6-1.3 1.2-.4 1.2 1 2.1 1.9 2.7v.7c0 .2 0 .5.1.7-1 .3-2 .7-2.8 1.4-1.5 1.3-2.4 2.9-2.4 4.8 0 .7 1.1.7 1.2 0 .2-3.1 2.7-5.2 5.7-5.3h.5c.3 0 .6.1.9.1h.1c3.2.7 4.7 3.4 4.8 6.6.1 1.5.1 3.1 0 4.6-.6 0-1.3 0-1.9-.1h-6.1c-.3 0-.5.3-.5.7 0 .3.2.5.5.5 2.2 0 4.4-.1 6.5 0 1.2 0 2.9.7 3-1.1 0-.7-.3-1.5-.3-2.2zM14.1 7.2h-1.4v-.9h1.4c.1.2.2.8 0 .9zm.5-2.3c-.1.1-.2.2-.4.3h-1.9-.1C11.8 4.9 11 4.5 11 4c-.1-.3 0-.6.4-.6.3 0 .4.2.4.4.1.1.3.2.5.2s.4-.1.5-.3c.1-.1.1-.3.2-.4 0-.1 0-.2.1-.3l.1-.1c.2-.2.4-.2.5-.1.1 0 .2.1.2.2 0 0 .1 0 .1.1-.1.3.1.6.4.7h.4c.2-.1.3-.2.5-.3.4-.4 1.1.3.6.6-.3.3-.6.5-1 .7-.1 0-.2.1-.3.1z"/><path d="M9.3 17.6c-1.9-.1-3.8 0-5.7 0-.3 0-.5.3-.5.7 0 .3.2.5.5.5 1.9-.1 3.8-.1 5.7 0 .3 0 .5-.3.5-.7-.1-.3-.3-.5-.5-.5zM9.3 19.7H3.6c-.8 0-.8 1.2 0 1.2h5.7c.3 0 .5-.3.5-.7-.1-.2-.3-.5-.5-.5zM9.3 15.2H3.6c-.3 0-.5.3-.5.7 0 .3.2.5.5.5h5.7c.3 0 .5-.3.5-.7-.1-.3-.3-.5-.5-.5zM11.5 17.4h3.6c.3 0 .5-.3.5-.7 0-.3-.2-.5-.5-.5h-2v-1.1h1.4c.3 0 .5-.3.5-.7 0-.3-.2-.5-.5-.5h-1.4c0-.4 0-1.1.4-1.3.3-.1.7 0 .9.2.4.6 1.4 0 1-.6-.6-.9-1.9-1.1-2.8-.5 0 0-.1 0-.1.1-.3.6-.5 1.2-.5 1.9v.3h-.5c-.3 0-.5.3-.5.7 0 .3.2.5.5.5h.5v1.1h-.5c-.7-.1-.7 1.1 0 1.1z"/></svg>